<svg width="225" height="276" viewBox="0 0 225 276" fill="none" xmlns="http://www.w3.org/2000/svg">
<path d="M111.325 262.615C103.824 263.345 95.958 264.358 89.8761 268.858C88.9841 269.508 88.1328 270.318 87.9706 271.414C87.6867 273.805 90.9303 274.779 93.3629 274.859C137.031 276.237 180.699 276.361 224.368 275.265C224.935 272.265 221.57 270.156 218.732 269.143C185.038 256.858 146.357 259.208 111.325 262.615Z" fill="url(#paint0_linear_2417_243)"/>
<path d="M111.317 262.614C103.816 263.345 95.9502 264.358 89.8683 268.857C88.9761 269.508 88.1247 270.318 87.9627 271.413C87.6789 273.804 90.9222 274.779 93.3551 274.859C137.023 276.237 180.691 276.36 224.36 275.265C224.927 272.264 221.562 270.156 218.724 269.143C185.03 256.857 146.349 259.208 111.317 262.614Z" fill="url(#paint1_linear_2417_243)"/>
<path d="M87.1311 203.733C84.4956 209.207 85.6714 217.843 86.8472 225.344C87.7392 230.98 89.2801 236.981 93.7401 240.509C96.254 242.495 99.376 243.47 102.498 244.238C116.77 247.686 131.975 247.198 145.964 242.86C148.761 241.968 151.599 240.914 153.911 239.13C157.6 236.251 159.587 231.71 161.047 227.25C163.033 221.168 167.94 207.464 161.858 204.098C156.505 201.138 139.314 204.788 132.908 204.747C128.042 204.747 123.176 204.666 118.392 203.53C112.918 202.274 107.566 199.638 102.052 198.624C93.5373 197.043 89.1988 199.435 87.1311 203.733Z" fill="#2F3F47"/>
<path d="M121.939 252.152C121.979 251.666 122.02 251.18 122.06 250.653C117.843 247.773 110.424 248.707 105.964 250.167C101.179 251.707 101.179 254.708 101.219 259.655C101.26 262.452 101.503 265.654 103.652 267.438C105.315 268.857 107.666 269.019 109.815 269.181C111.761 269.305 113.708 269.426 115.654 269.508C116.992 269.588 118.492 269.629 119.546 268.737C120.601 267.844 120.763 266.304 120.884 264.965C121.249 260.709 121.574 256.451 121.939 252.152Z" fill="#2F3F47"/>
<path d="M125.84 252.152C125.8 251.666 125.759 251.18 125.719 250.653C129.936 247.773 137.355 248.707 141.815 250.167C146.6 251.707 146.6 254.708 146.559 259.655C146.519 262.452 146.275 265.654 144.127 267.438C142.464 268.857 140.112 269.019 137.963 269.181C136.017 269.305 134.071 269.426 132.125 269.508C130.787 269.588 129.287 269.629 128.233 268.737C127.178 267.844 127.016 266.304 126.894 264.965C126.529 260.709 126.205 256.451 125.84 252.152Z" fill="#2F3F47"/>
<path d="M23.6788 48.8091C23.8005 49.8227 23.9222 50.8769 23.5573 51.8501C23.2735 52.6204 22.7057 53.2285 22.138 53.8369C19.7458 56.3101 17.1509 58.6211 14.3532 60.6485C11.1906 60.2024 8.10909 59.3511 5.18978 58.0536C4.66268 57.8104 4.09508 57.5265 3.73018 57.0401C3.44636 56.6752 3.36532 56.1885 3.28422 55.7426C2.18948 50.5526 1.09475 45.322 0 40.1322C1.62185 39.0374 3.40579 38.1455 5.23035 37.4561C5.96019 40.5784 6.68994 43.741 7.41978 46.8629C8.10905 49.8633 9.24456 53.3504 12.2044 54.2017C13.9885 52.661 15.7723 51.0797 17.5563 49.5388C17.8807 49.2549 18.1645 48.9713 18.3673 48.6065C18.57 48.1604 18.489 47.6333 18.4079 47.1062C17.9619 44.0652 17.2725 41.0242 16.34 38.0642C17.8402 37.7804 19.3 37.4968 20.8002 37.2129C22.6653 40.7403 23.1923 44.8355 23.6788 48.8091Z" fill="#2F3F47"/>
<path d="M9.80194 60.7354C9.76139 60.8976 9.80199 61.0599 9.84254 61.2218C10.2885 63.087 10.7346 64.9522 11.1806 66.8173C14.1 66.128 16.9787 65.1957 19.7764 64.1008C19.4926 62.4789 19.0465 60.8976 18.4383 59.3973C18.3167 59.0731 18.1138 58.708 17.7894 58.5864C17.5867 58.5054 17.3435 58.5457 17.1408 58.5864C14.8297 58.9918 12.5592 59.5596 10.3697 60.2895C10.1264 60.4111 9.88304 60.5328 9.80194 60.7354Z" fill="#2F3F47"/>
<path d="M10.4204 68.5972C10.1366 72.0437 14.8803 78.4095 16.34 81.2476C18.2862 85.0995 20.2325 88.9919 22.9896 92.2761C25.7467 95.6009 29.396 98.3177 33.6128 99.2096C36.0048 99.6961 38.4783 99.5745 40.9109 99.2502C48.2093 98.3177 55.3049 95.6822 61.4678 91.6276C61.9543 91.3031 62.4814 90.9383 62.6843 90.3705C62.8869 89.8031 62.6843 89.1541 62.4814 88.546C61.7111 86.2347 60.9407 83.6805 59.7649 81.5721C57.6971 77.842 58.9946 78.4907 55.6697 78.7743C53.1155 78.9772 49.4662 81.6533 46.7497 82.3424C43.5871 83.113 40.3028 83.5182 37.0996 83.9237C35.0722 84.167 32.8018 84.3698 31.0989 83.2344C30.1663 82.5857 29.5176 81.6531 28.9095 80.6799C25.2602 75.0036 21.9355 69.1245 19.0162 63.0832C18.5296 62.029 11.0691 66.4078 10.5825 68.0701C10.4609 68.2323 10.4204 68.3946 10.4204 68.5972Z" fill="#516770"/>
<g opacity="0.15">
<path opacity="0.15" d="M40.8761 97.0164C39.3354 93.2861 38.6461 89.5557 38.4435 85.5824C38.4028 84.8118 37.3486 84.6902 37.227 85.5012C36.5379 89.7586 37.227 94.0968 38.7273 98.111C39.2138 99.5706 41.4438 98.4761 40.8761 97.0164Z" fill="#272525"/>
<path opacity="0.15" d="M33.8607 97.3044C32.8065 93.493 33.2122 90.4521 34.469 86.7624C34.6313 86.2756 33.9013 85.911 33.6581 86.3569C32.5229 88.222 31.2658 89.7223 30.901 91.9524C30.5361 94.0608 30.6171 96.1285 31.3874 98.1557C31.8742 99.5748 34.2662 98.764 33.8607 97.3044Z" fill="#272525"/>
</g>
<path d="M71.8154 64.8738C66.3012 67.5499 64.9631 74.7264 64.4767 80.849C61.3141 118.476 62.5305 156.508 68.0447 193.851C68.7341 198.392 69.7073 203.339 73.2754 206.218C75.5864 208.083 78.6274 208.731 81.5467 209.259C111.267 214.692 141.96 214.732 171.681 209.38C172.654 209.218 173.708 209.015 174.519 208.366C175.614 207.515 176.019 206.096 176.344 204.758C187.007 163.036 184.493 119.246 181.777 76.3077C181.695 74.8077 181.574 73.2667 180.885 71.9693C180.033 70.388 178.452 69.3336 176.83 68.5228C167.586 63.6573 156.76 63.2518 146.339 63.0896C123.958 62.6841 101.577 62.887 79.1948 63.6169C76.6812 63.6573 74.0455 63.7789 71.8154 64.8738Z" fill="#EAF1F2"/>
<path d="M87.2652 52.9499C111.715 57.9372 136.691 57.5315 161.059 51.774C166.209 50.5576 171.763 48.7737 175.251 42.9756C181.251 32.9607 177.359 15.9718 169.818 8.55186C162.276 1.13191 152.666 0.604692 143.625 0.320868C129.109 -0.125139 114.512 -0.571067 100.159 2.42935C91.8469 4.17284 83.1297 7.53809 77.5751 16.7826C72.0202 26.0271 71.6551 42.7323 78.7506 49.3008C81.2241 51.6118 84.3055 52.3418 87.2652 52.9499Z" fill="#EAF1F2"/>
<path d="M93.4618 254.149C113.694 255.73 134.332 255.609 154.524 253.784C158.782 253.378 163.363 252.81 166.242 250.986C171.189 247.783 167.986 242.391 161.742 240.039C155.497 237.687 147.55 237.525 140.049 237.403C128.048 237.241 115.965 237.119 104.085 238.093C97.2327 238.66 89.975 239.714 85.3933 242.674C80.8114 245.633 80.4872 250.945 86.3663 253.013C88.4747 253.702 90.9885 253.946 93.4618 254.149Z" fill="#EAF1F2"/>
<path d="M101.092 40.8227C117.23 42.9718 133.651 42.8095 149.748 40.2956C153.154 39.7685 156.803 38.9982 159.073 36.4843C163.047 32.1459 160.452 24.8069 155.505 21.6038C150.559 18.4006 144.193 18.1573 138.233 18.0357C128.664 17.833 119.054 17.6304 109.566 18.9684C104.093 19.7388 98.3354 21.1578 94.686 25.1717C91.037 29.1859 90.7937 36.4033 95.4564 39.2008C97.1189 40.255 99.1463 40.5795 101.092 40.8227Z" fill="#2F3F47"/>
<path d="M104.454 65.2758C102.427 65.2758 100.035 65.5191 99.0616 67.303C98.5752 68.1949 98.5752 69.2491 98.6158 70.2627C99.3049 94.8338 100.035 119.445 100.724 144.016C116.253 148.152 132.796 152.288 148.082 147.341C150.15 120.378 150.636 93.3337 149.501 66.2894C143.176 64.9107 136.607 64.9513 130.12 65.0326C121.605 65.1136 113.05 65.1946 104.454 65.2758Z" fill="#E2ECED"/>
<path d="M150.88 66.2859C150.839 65.7182 150.474 65.1098 149.907 64.9882C142.933 63.5691 135.878 63.6098 128.823 63.6908C120.713 63.7718 112.604 63.853 104.495 63.8934C99.1021 64.0556 97.2372 66.3263 97.3591 71.6379C97.6023 79.666 97.8049 87.6941 98.0482 95.7628C98.4943 111.819 98.9805 127.916 99.4266 143.972C99.4266 144.58 99.8323 145.107 100.4 145.27C116.01 149.446 132.512 153.5 148.447 148.594C149.055 148.392 149.379 147.905 149.42 147.297C151.488 120.374 151.974 93.33 150.88 66.2859ZM146.866 146.324C131.985 150.581 116.659 146.851 102.103 142.958C101.738 130.065 101.373 117.171 101.008 104.277C100.805 97.6684 100.643 91.0596 100.44 84.4101C100.359 81.0853 100.238 77.8008 100.156 74.4762C100.116 73.0569 100.075 71.6379 100.035 70.2188C99.9537 67.4211 102.224 66.6507 104.535 66.5697C111.753 66.4885 118.97 66.4481 126.187 66.3669C133.566 66.2859 141.027 66.0426 148.325 67.3807C149.258 93.7357 148.812 120.05 146.866 146.324Z" fill="#2F3F47"/>
<path opacity="0.2" d="M128.019 140.054C128.383 139.486 128.586 138.878 128.789 138.27C129.032 137.418 129.235 136.526 129.073 135.634C128.951 134.945 128.586 134.336 128.221 133.688C128.1 133.485 127.978 133.242 127.856 133.039C127.653 132.715 127.491 132.35 127.208 132.066C126.518 131.296 125.424 131.052 124.41 130.85C123.68 130.728 122.95 130.606 122.18 130.687C120.518 130.89 119.098 132.147 118.531 133.728C117.963 135.269 118.166 137.053 118.855 138.553C119.747 140.459 121.572 142.041 123.68 142.203C125.424 142.324 127.127 141.473 128.019 140.054Z" fill="#272525"/>
<path d="M126.83 139.808C127.194 139.24 127.397 138.632 127.6 138.024C127.843 137.172 128.046 136.28 127.884 135.388C127.762 134.699 127.397 134.091 127.073 133.442C126.951 133.239 126.83 132.996 126.708 132.794C126.505 132.469 126.343 132.104 126.059 131.82C125.37 131.05 124.275 130.807 123.262 130.604C122.532 130.482 121.802 130.361 121.032 130.442C119.369 130.644 117.95 131.902 117.382 133.483C116.815 135.064 117.017 136.807 117.707 138.308C118.599 140.214 120.423 141.795 122.532 141.957C124.235 142.119 125.938 141.227 126.83 139.808Z" fill="#83959E"/>
<path opacity="0.2" d="M123.538 137.165C123.863 136.719 123.903 136.192 123.903 135.665C123.903 135.503 123.903 135.3 123.863 135.138C123.782 134.895 123.579 134.692 123.336 134.53C122.647 134.084 121.673 134.043 120.943 134.489C120.254 134.935 119.849 135.908 120.133 136.678C120.579 137.165 121.106 137.571 121.754 137.733C122.403 137.855 123.133 137.692 123.538 137.165Z" fill="black"/>
<path opacity="0.2" d="M128.38 199.159C128.745 198.592 128.948 197.984 129.151 197.376C129.394 196.524 129.597 195.632 129.435 194.74C129.313 194.051 128.948 193.443 128.624 192.794C128.502 192.591 128.38 192.348 128.259 192.145C128.056 191.82 127.894 191.456 127.61 191.172C126.921 190.401 125.826 190.158 124.812 189.956C124.082 189.834 123.353 189.712 122.582 189.793C120.92 189.996 119.501 191.253 118.933 192.834C118.366 194.375 118.568 196.159 119.257 197.659C120.149 199.565 121.974 201.146 124.083 201.308C125.745 201.47 127.488 200.619 128.38 199.159Z" fill="#272525"/>
<path d="M127.198 198.952C127.563 198.384 127.766 197.776 127.969 197.168C128.212 196.316 128.415 195.424 128.252 194.532C128.131 193.843 127.766 193.235 127.401 192.586C127.279 192.383 127.158 192.14 127.036 191.937C126.833 191.613 126.671 191.248 126.387 190.964C125.698 190.194 124.603 189.95 123.59 189.748C122.86 189.626 122.13 189.504 121.36 189.585C119.697 189.788 118.278 191.045 117.71 192.626C117.143 194.167 117.346 195.951 118.035 197.451C118.927 199.357 120.751 200.938 122.86 201.101C124.563 201.222 126.306 200.371 127.198 198.952Z" fill="#83959E"/>
<path opacity="0.2" d="M123.919 196.309C124.244 195.863 124.244 195.336 124.284 194.809C124.284 194.647 124.284 194.444 124.244 194.282C124.163 194.038 123.96 193.835 123.717 193.673C123.027 193.227 122.054 193.187 121.324 193.633C120.635 194.079 120.23 195.052 120.513 195.822C120.959 196.309 121.487 196.714 122.135 196.877C122.743 196.998 123.514 196.836 123.919 196.309Z" fill="black"/>
<path d="M183.344 144.167C183.871 143.275 184.398 142.383 185.25 141.815C185.939 141.369 186.75 141.247 187.561 141.085C190.967 140.558 194.413 140.315 197.859 140.355C200.13 142.585 202.076 145.18 203.617 147.978C203.901 148.505 204.185 149.073 204.185 149.64C204.185 150.086 203.982 150.532 203.779 150.978C201.509 155.803 199.238 160.588 196.967 165.413C195.021 165.332 193.075 164.967 191.169 164.359C192.467 161.439 193.805 158.479 195.102 155.56C196.359 152.763 197.576 149.316 195.751 146.843C193.399 147.005 191.048 147.167 188.655 147.329C188.25 147.37 187.804 147.37 187.48 147.572C187.034 147.816 186.79 148.262 186.547 148.708C185.047 151.425 183.79 154.262 182.736 157.141C181.357 156.492 180.019 155.803 178.641 155.155C179.249 151.222 181.317 147.654 183.344 144.167Z" fill="#2F3F47"/>
<path d="M201.632 143.081C201.754 143 201.835 142.838 201.916 142.675C202.687 140.932 203.457 139.148 204.227 137.404C201.47 136.188 198.632 135.174 195.713 134.363C194.942 135.823 194.374 137.323 193.929 138.905C193.847 139.229 193.766 139.634 193.969 139.918C194.091 140.121 194.293 140.202 194.496 140.324C196.564 141.418 198.713 142.31 200.943 143.04C201.146 143.121 201.43 143.202 201.632 143.081Z" fill="#2F3F47"/>
<path d="M205.893 136.432C208.164 133.878 208.245 125.931 208.813 122.809C209.583 118.592 210.394 114.294 210.191 109.996C209.988 105.698 208.772 101.319 205.934 98.0757C204.312 96.2509 202.285 94.8319 200.136 93.6561C193.73 90.0067 186.512 87.8173 179.173 87.2902C178.606 87.2496 177.957 87.2496 177.47 87.5335C176.943 87.858 176.7 88.5067 176.538 89.1148C175.768 91.426 174.835 93.8993 174.47 96.2916C173.862 100.508 173.213 99.1703 176.051 100.995C178.2 102.374 182.742 102.455 185.336 103.549C188.337 104.847 191.175 106.509 193.973 108.131C195.757 109.185 197.663 110.361 198.352 112.307C198.717 113.361 198.636 114.537 198.555 115.673C198.027 122.403 197.135 129.093 195.797 135.702C195.554 136.838 204.15 137.851 205.528 136.838C205.61 136.716 205.731 136.594 205.893 136.432Z" fill="#516770"/>
<g opacity="0.15">
<path opacity="0.15" d="M198.802 95.4089C197.788 99.3014 196.086 102.707 193.855 106.032C193.409 106.681 194.22 107.411 194.788 106.843C197.91 103.843 199.978 99.9908 201.194 95.8956C201.64 94.3547 199.207 93.8682 198.802 95.4089Z" fill="#272525"/>
<path opacity="0.15" d="M204.567 99.3919C203.108 103.082 200.959 105.271 197.715 107.461C197.269 107.745 197.634 108.474 198.121 108.272C200.189 107.461 202.054 107.055 203.716 105.474C205.257 104.014 206.473 102.271 207.082 100.244C207.528 98.8245 205.095 98.0135 204.567 99.3919Z" fill="#272525"/>
</g>
<defs>
<linearGradient id="paint0_linear_2417_243" x1="87.9635" y1="267.934" x2="224.437" y2="267.934" gradientUnits="userSpaceOnUse">
<stop stop-color="#4D4D4D"/>
<stop offset="1"/>
</linearGradient>
<linearGradient id="paint1_linear_2417_243" x1="87.9557" y1="267.934" x2="224.429" y2="267.934" gradientUnits="userSpaceOnUse">
<stop/>
<stop offset="1"/>
</linearGradient>
</defs>
</svg>
