<svg width="323" height="323" viewBox="0 0 323 323" fill="none" xmlns="http://www.w3.org/2000/svg">
<path fill-rule="evenodd" clip-rule="evenodd" d="M262.438 129.51C262.438 130.367 262.424 131.221 262.396 132.071C274.438 138.628 282.625 151.514 282.625 166.339C282.625 185.023 269.62 200.628 252.283 204.363L264.302 181.949C266.298 178.628 263.906 174.4 260.031 174.4H259.213H247.579C246.403 174.4 245.59 173.224 246.005 172.124L255.508 146.941C256.977 143.172 254.197 139.105 250.152 139.105H249.837H208.97H208.792C206.149 139.105 203.83 140.866 203.121 143.411L186.472 203.169L185.903 205.213L92.8625 205.213C63.8745 205.213 40.375 181.396 40.375 152.017C40.375 122.637 63.8745 98.8198 92.8625 98.8198C101.61 98.8198 109.858 100.989 117.111 104.825C127.211 75.1355 155.02 53.8071 187.744 53.8071C228.996 53.8071 262.438 87.7006 262.438 129.51Z" fill="white"/>
<path fill-rule="evenodd" clip-rule="evenodd" d="M94.571 224.363C95.7194 220.829 99.5157 218.895 103.05 220.043C106.585 221.192 108.519 224.988 107.371 228.522L95.5234 264.984C94.3749 268.519 90.5787 270.453 87.0441 269.305C83.5096 268.156 81.5753 264.36 82.7237 260.826L94.571 224.363ZM130.144 220.043C126.61 218.895 122.814 220.829 121.665 224.363L98.7367 294.93C97.5883 298.464 99.5226 302.261 103.057 303.409C106.592 304.558 110.388 302.623 111.536 299.089L134.465 228.522C135.613 224.988 133.679 221.192 130.144 220.043ZM157.242 220.043C153.707 218.895 149.911 220.829 148.762 224.363L131.375 277.878C130.226 281.412 132.161 285.209 135.695 286.357C139.23 287.505 143.026 285.571 144.174 282.037L161.562 228.522C162.711 224.988 160.776 221.192 157.242 220.043ZM184.333 220.043C180.798 218.895 177.002 220.829 175.853 224.363L164.006 260.826C162.858 264.36 164.792 268.156 168.326 269.305C171.861 270.453 175.657 268.519 176.806 264.984L188.653 228.522C189.801 224.988 187.867 221.192 184.333 220.043Z" fill="#B4F5F2"/>
<path fill-rule="evenodd" clip-rule="evenodd" d="M212.276 147.077C211.058 147.077 209.992 147.894 209.676 149.07L195.531 201.755C195.072 203.465 196.36 205.145 198.131 205.145H217.119C218.726 205.145 219.974 206.543 219.794 208.139L214.714 253.095C214.377 256.073 218.427 257.29 219.787 254.619L255.13 185.22C256.042 183.43 254.741 181.307 252.731 181.307H237.209C235.3 181.307 233.998 179.376 234.713 177.606L245.564 150.778C246.28 149.008 244.978 147.077 243.069 147.077H212.276Z" fill="#FFF686"/>
</svg>
